<?xml version="1.0" encoding="utf-8"?>
<svg version="1.1" id="controller" xmlns="http://www.w3.org/2000/svg" xmlns:xlink="http://www.w3.org/1999/xlink" x="0px" y="0px"
	 viewBox="-20 -20 40 40" style="enable-background:new -20 -20 40 40;" xml:space="preserve">
<g>
	<path fill="#ccc" d="M 0 -8 C 8 -8 5 -9 10 -9 C 12 -9 14 -6 16 0 C 18 6 18 14 14 14 C 8 14 12 8 0 8 C -12 8 -8 14 -14 14 C -18 14 -18 6 -16 0 C -14 -6 -12 -9 -10 -9 C -5 -9 -8 -8 0 -8 Z M 7 0 A 2 2 90 0 0 3 0 A 2 2 90 0 0 7 0 Z M 8 -1 A 2 2 90 0 0 8 -5 A 2 2 90 0 0 8 -1 Z M 9 0 A 2 2 90 0 0 13 0 A 2 2 90 0 0 9 0 Z M 8 1 A 2 2 90 0 0 8 5 A 2 2 90 0 0 8 1 Z M -13 0 C -13 2 -13 2 -11 2 C -10 2 -10 2 -10 3 C -10 5 -10 5 -8 5 C -6 5 -6 5 -6 3 C -6 2 -6 2 -5 2 C -3 2 -3 2 -3 0 C -3 -2 -3 -2 -5 -2 C -6 -2 -6 -2 -6 -3 C -6 -5 -6 -5 -8 -5 C -10 -5 -10 -5 -10 -3 C -10 -2 -10 -2 -11 -2 C -13 -2 -13 -2 -13 0 Z"/>
</g>
</svg>
